<?xml version="1.0" encoding="UTF-8" standalone="no"?>
<!DOCTYPE svg PUBLIC "-//W3C//DTD SVG 1.1//EN"
 "http://www.w3.org/Graphics/SVG/1.1/DTD/svg11.dtd">
<!-- Generated by graphviz version 2.43.0 (0)
 -->
<!-- Title: %3 Pages: 1 -->
<svg width="352pt" height="725pt"
 viewBox="0.00 0.00 352.00 725.00" xmlns="http://www.w3.org/2000/svg" xmlns:xlink="http://www.w3.org/1999/xlink">
<g id="graph0" class="graph" transform="scale(1 1) rotate(0) translate(4 721)">
<title>%3</title>
<polygon fill="white" stroke="transparent" points="-4,4 -4,-721 348,-721 348,4 -4,4"/>
<!-- getcompany -->
<g id="node1" class="node">
<title>getcompany</title>
<polygon fill="#4a90e2" stroke="black" points="262,-717 46,-717 46,-609 262,-609 262,-717"/>
<text text-anchor="middle" x="154" y="-659.3" font-family="Times,serif" font-size="14.00">getcompany</text>
</g>
<!-- getcompany_output_company_name -->
<g id="node4" class="node">
<title>getcompany_output_company_name</title>
<ellipse fill="#f5a623" stroke="black" cx="36" cy="-536" rx="36" ry="36"/>
<text text-anchor="middle" x="36" y="-533.5" font-family="Times,serif" font-size="10.00">company_name</text>
</g>
<!-- getcompany&#45;&gt;getcompany_output_company_name -->
<g id="edge2" class="edge">
<title>getcompany&#45;&gt;getcompany_output_company_name</title>
<path fill="none" stroke="#ff6b35" stroke-width="2" d="M76.59,-608.81C70.92,-600.4 64.92,-590.1 57.78,-577.01"/>
<polygon fill="#ff6b35" stroke="#ff6b35" stroke-width="2" points="60.74,-575.13 52.9,-567.99 54.58,-578.46 60.74,-575.13"/>
</g>
<!-- getcompany_output_company_address -->
<g id="node5" class="node">
<title>getcompany_output_company_address</title>
<ellipse fill="#f5a623" stroke="black" cx="126" cy="-536" rx="36" ry="36"/>
<text text-anchor="middle" x="126" y="-533.5" font-family="Times,serif" font-size="10.00">company_address</text>
</g>
<!-- getcompany&#45;&gt;getcompany_output_company_address -->
<g id="edge3" class="edge">
<title>getcompany&#45;&gt;getcompany_output_company_address</title>
<path fill="none" stroke="#ff6b35" stroke-width="2" d="M137.03,-608.82C135.69,-601.56 134.29,-592.91 132.65,-581.97"/>
<polygon fill="#ff6b35" stroke="#ff6b35" stroke-width="2" points="136.06,-581.13 131.13,-571.75 129.14,-582.15 136.06,-581.13"/>
</g>
<!-- getcompany_output_company_id -->
<g id="node6" class="node">
<title>getcompany_output_company_id</title>
<ellipse fill="#f5a623" stroke="black" cx="216" cy="-536" rx="36" ry="36"/>
<text text-anchor="middle" x="216" y="-533.5" font-family="Times,serif" font-size="10.00">company_id</text>
</g>
<!-- getcompany&#45;&gt;getcompany_output_company_id -->
<g id="edge4" class="edge">
<title>getcompany&#45;&gt;getcompany_output_company_id</title>
<path fill="none" stroke="#ff6b35" stroke-width="2" d="M190.71,-608.63C193.84,-600.92 197.22,-591.61 201.3,-579.77"/>
<polygon fill="#ff6b35" stroke="#ff6b35" stroke-width="2" points="204.65,-580.81 204.57,-570.21 198.02,-578.55 204.65,-580.81"/>
</g>
<!-- getUser -->
<g id="node2" class="node">
<title>getUser</title>
<polygon fill="#4a90e2" stroke="black" points="303,-340 87,-340 87,-232 303,-232 303,-340"/>
<text text-anchor="middle" x="195" y="-282.3" font-family="Times,serif" font-size="14.00">getUser</text>
</g>
<!-- getUser_output_user_name -->
<g id="node9" class="node">
<title>getUser_output_user_name</title>
<ellipse fill="#f5a623" stroke="black" cx="226" cy="-159" rx="36" ry="36"/>
<text text-anchor="middle" x="226" y="-156.5" font-family="Times,serif" font-size="10.00">user_name</text>
</g>
<!-- getUser&#45;&gt;getUser_output_user_name -->
<g id="edge7" class="edge">
<title>getUser&#45;&gt;getUser_output_user_name</title>
<path fill="none" stroke="#ff6b35" stroke-width="2" d="M210.91,-231.84C214.12,-220.63 216.43,-212.15 218.2,-204.92"/>
<polygon fill="#ff6b35" stroke="#ff6b35" stroke-width="2" points="221.64,-205.58 220.46,-195.05 214.82,-204.02 221.64,-205.58"/>
</g>
<!-- getUser_output_company_id -->
<g id="node10" class="node">
<title>getUser_output_company_id</title>
<ellipse fill="#f5a623" stroke="black" cx="136" cy="-159" rx="36" ry="36"/>
<text text-anchor="middle" x="136" y="-156.5" font-family="Times,serif" font-size="10.00">company_id</text>
</g>
<!-- getUser&#45;&gt;getUser_output_company_id -->
<g id="edge8" class="edge">
<title>getUser&#45;&gt;getUser_output_company_id</title>
<path fill="none" stroke="#ff6b35" stroke-width="2" d="M175.25,-231.72C169.54,-216.53 165.29,-206.18 161.1,-197.69"/>
<polygon fill="#ff6b35" stroke="#ff6b35" stroke-width="2" points="164.12,-195.9 156.33,-188.71 157.94,-199.18 164.12,-195.9"/>
</g>
<!-- getcompany_input_company_id -->
<g id="node3" class="node">
<title>getcompany_input_company_id</title>
<ellipse fill="#7ed321" stroke="black" cx="247" cy="-36" rx="36" ry="36"/>
<text text-anchor="middle" x="247" y="-33.5" font-family="Times,serif" font-size="10.00">company_id</text>
</g>
<!-- getcompany_input_company_id&#45;&gt;getcompany -->
<g id="edge1" class="edge">
<title>getcompany_input_company_id&#45;&gt;getcompany</title>
<path fill="none" stroke="#50c878" stroke-width="2" d="M184.24,-608.9C319.36,-366.07 322.31,-336.67 258.31,-80.94"/>
<polygon fill="#50c878" stroke="#50c878" stroke-width="2" points="261.64,-79.81 255.81,-70.96 254.85,-81.51 261.64,-79.81"/>
</g>
<!-- getUser_input_company_id -->
<g id="node8" class="node">
<title>getUser_input_company_id</title>
<ellipse fill="#7ed321" stroke="black" cx="136" cy="-413" rx="36" ry="36"/>
<text text-anchor="middle" x="136" y="-410.5" font-family="Times,serif" font-size="10.00">company_id</text>
</g>
<!-- getcompany_output_company_id&#45;&gt;getUser_input_company_id -->
<g id="edge10" class="edge">
<title>getcompany_output_company_id&#45;&gt;getUser_input_company_id</title>
<path fill="none" stroke="#9013fe" stroke-width="3" d="M188.18,-512.63C175.96,-500.33 168.33,-486.87 154.39,-455.5"/>
<polygon fill="#9013fe" stroke="#9013fe" stroke-width="3" points="157.51,-453.9 150.28,-446.16 151.1,-456.72 157.51,-453.9"/>
<text text-anchor="middle" x="240" y="-470.8" font-family="Times,serif" font-size="14.00"> &#160;company_id → company_id &#160;</text>
</g>
<!-- getUser_input_user_id -->
<g id="node7" class="node">
<title>getUser_input_user_id</title>
<ellipse fill="#7ed321" stroke="black" cx="226" cy="-413" rx="36" ry="36"/>
<text text-anchor="middle" x="226" y="-410.5" font-family="Times,serif" font-size="10.00">user_id</text>
</g>
<!-- getUser_input_user_id&#45;&gt;getUser -->
<g id="edge5" class="edge">
<title>getUser_input_user_id&#45;&gt;getUser</title>
<path fill="none" stroke="#50c878" stroke-width="2" d="M230.98,-377.09C232.04,-366.33 232.08,-357.93 230.63,-350.05"/>
<polygon fill="#50c878" stroke="#50c878" stroke-width="2" points="233.96,-348.95 227.98,-340.21 227.2,-350.78 233.96,-348.95"/>
</g>
<!-- getUser_input_company_id&#45;&gt;getUser -->
<g id="edge6" class="edge">
<title>getUser_input_company_id&#45;&gt;getUser</title>
<path fill="none" stroke="#50c878" stroke-width="2" d="M137.67,-376.91C138.83,-366.11 140.95,-357.66 145.21,-348.97"/>
<polygon fill="#50c878" stroke="#50c878" stroke-width="2" points="148.35,-350.53 150.24,-340.1 142.26,-347.08 148.35,-350.53"/>
</g>
<!-- getUser_output_company_id&#45;&gt;getcompany_input_company_id -->
<g id="edge9" class="edge">
<title>getUser_output_company_id&#45;&gt;getcompany_input_company_id</title>
<path fill="none" stroke="#9013fe" stroke-width="3" d="M154.64,-128.15C178.79,-88.5 190.25,-72.18 206.66,-59.62"/>
<polygon fill="#9013fe" stroke="#9013fe" stroke-width="3" points="208.99,-62.26 215.19,-53.67 204.99,-56.52 208.99,-62.26"/>
<text text-anchor="middle" x="240" y="-93.8" font-family="Times,serif" font-size="14.00"> &#160;company_id → company_id &#160;</text>
</g>
</g>
</svg>
