<?xml version="1.0" encoding="UTF-8" standalone="no"?>
<!DOCTYPE svg PUBLIC "-//W3C//DTD SVG 1.1//EN"
 "http://www.w3.org/Graphics/SVG/1.1/DTD/svg11.dtd">
<!-- Generated by graphviz version 2.43.0 (0)
 -->
<!-- Title: %3 Pages: 1 -->
<svg width="155pt" height="305pt"
 viewBox="0.00 0.00 154.89 305.00" xmlns="http://www.w3.org/2000/svg" xmlns:xlink="http://www.w3.org/1999/xlink">
<g id="graph0" class="graph" transform="scale(1 1) rotate(0) translate(4 301)">
<title>%3</title>
<polygon fill="white" stroke="transparent" points="-4,4 -4,-301 150.89,-301 150.89,4 -4,4"/>
<!-- Avv -->
<g id="A" class="node">
<title>Avv</title>
<ellipse fill="none" stroke="red" cx="73.44" cy="-279" rx="72.59" ry="18"/>
<text text-anchor="middle" x="73.44" y="-275.3" font-family="Times,serif" font-size="14.00">Node A Label</text>
</g>
<!-- B -->
<g id="node3" class="node">
<title>B</title>
<ellipse fill="none" stroke="black" cx="73.44" cy="-192" rx="73.39" ry="18"/>
<text text-anchor="middle" x="73.44" y="-188.3" font-family="Times,serif" font-size="14.00">Node B Label</text>
</g>
<!-- Avv&#45;&gt;B -->
<g id="edge1" class="edge">
<title>Avv&#45;&gt;B</title>
<path fill="none" stroke="black" d="M73.44,-260.8C73.44,-249.16 73.44,-233.55 73.44,-220.24"/>
<polygon fill="black" stroke="black" points="76.94,-220.18 73.44,-210.18 69.94,-220.18 76.94,-220.18"/>
<text text-anchor="middle" x="104.44" y="-231.8" font-family="Times,serif" font-size="14.00">Edge AB</text>
</g>
<!-- A -->
<g id="node_b" class="node">
<title>A</title>
<ellipse fill="none" stroke="black" cx="73.44" cy="-18" rx="73.39" ry="18"/>
<text text-anchor="middle" x="73.44" y="-14.3" font-family="Times,serif" font-size="14.00">Node B Label</text>
</g>
<!-- C -->
<g id="node4" class="node">
<title>C</title>
<ellipse fill="none" stroke="black" cx="73.44" cy="-105" rx="73.39" ry="18"/>
<text text-anchor="middle" x="73.44" y="-101.3" font-family="Times,serif" font-size="14.00">Node C Label</text>
</g>
<!-- B&#45;&gt;C -->
<g id="edge2" class="edge">
<title>B&#45;&gt;C</title>
<path fill="none" stroke="black" d="M73.44,-173.8C73.44,-162.16 73.44,-146.55 73.44,-133.24"/>
<polygon fill="black" stroke="black" points="76.94,-133.18 73.44,-123.18 69.94,-133.18 76.94,-133.18"/>
<text text-anchor="middle" x="104.94" y="-144.8" font-family="Times,serif" font-size="14.00">Edge BC</text>
</g>
<!-- C&#45;&gt;A -->
<g id="edge3" class="edge">
<title>C&#45;&gt;A</title>
<path fill="none" stroke="black" d="M73.44,-86.8C73.44,-75.16 73.44,-59.55 73.44,-46.24"/>
<polygon fill="black" stroke="black" points="76.94,-46.18 73.44,-36.18 69.94,-46.18 76.94,-46.18"/>
<text text-anchor="middle" x="104.44" y="-57.8" font-family="Times,serif" font-size="14.00">Edge CA</text>
</g>
</g>
</svg>
